<?xml version="1.0" standalone="no"?>
<!DOCTYPE svg PUBLIC "-//W3C//DTD SVG 20010904//EN"
 "http://www.w3.org/TR/2001/REC-SVG-20010904/DTD/svg10.dtd">
<svg version="1.0" xmlns="http://www.w3.org/2000/svg"
 width="530.000000pt" height="530.000000pt" viewBox="0 0 530.000000 530.000000"
 preserveAspectRatio="xMidYMid meet">
<metadata>
Created by potrace 1.11, written by Peter Selinger 2001-2013
</metadata>
<g transform="translate(0.000000,530.000000) scale(0.100000,-0.100000)"
fill="#000000" stroke="none">
<path d="M2730 4996 c-3 -2 -50 -7 -105 -10 -55 -3 -116 -9 -135 -12 -51 -8
-213 -36 -225 -38 -55 -14 -81 -21 -148 -43 -58 -19 -77 -29 -73 -40 4 -9 -5
-19 -27 -29 -92 -42 -112 -63 -267 -289 -52 -76 -114 -166 -138 -199 -24 -34
-59 -85 -78 -114 -19 -30 -39 -59 -45 -65 -19 -22 -219 -312 -219 -318 0 -3
53 -27 118 -53 64 -27 131 -55 147 -62 95 -42 418 -174 424 -174 7 0 67 79
166 221 57 81 238 332 247 344 5 6 49 66 98 135 151 212 195 272 205 284 6 6
25 32 43 58 39 56 36 66 -44 122 -46 31 -67 56 -49 56 12 0 55 -24 55 -32 0
-4 6 -8 13 -8 29 0 169 -139 219 -215 21 -33 43 -67 48 -75 27 -41 257 -415
273 -443 9 -18 37 -63 62 -102 43 -69 44 -70 22 -79 -41 -18 -132 -58 -202
-90 -38 -18 -105 -48 -147 -67 -43 -19 -78 -36 -78 -39 0 -3 37 -7 83 -8 45
-2 93 -5 107 -7 14 -2 72 -7 130 -10 58 -3 128 -8 155 -9 28 -2 93 -7 145 -10
52 -4 118 -8 145 -11 52 -4 202 -14 293 -19 29 -2 55 1 58 5 4 7 27 87 39 139
2 8 43 155 90 325 116 414 115 408 110 413 -2 2 -69 -30 -149 -72 -80 -42
-147 -76 -150 -76 -2 0 -16 24 -31 53 -29 55 -149 234 -187 278 -13 15 -34 40
-48 56 -60 72 -118 130 -190 188 -121 98 -169 117 -320 131 -71 7 -435 15
-440 10z"/>
<path d="M1785 3285 c4 -51 20 -159 40 -277 3 -15 9 -38 15 -52 5 -15 8 -26 5
-26 -7 0 65 -201 92 -254 105 -209 278 -339 523 -392 19 -4 37 -8 40 -9 3 -1
25 -5 50 -9 25 -5 54 -10 65 -12 11 -2 52 -9 90 -15 139 -22 169 -52 168 -169
-1 -41 -8 -99 -16 -128 -14 -52 -14 -54 6 -48 11 3 27 -2 35 -11 15 -15 17
-14 27 8 19 45 55 87 83 97 20 7 46 4 97 -10 341 -92 499 -71 720 98 82 63
160 134 148 134 -5 0 -15 -6 -21 -12 -8 -8 -43 -13 -91 -13 -75 0 -83 2 -182
52 -269 136 -502 126 -658 -28 -43 -43 -59 -80 -54 -127 2 -26 -3 -46 -18 -67
-14 -21 -19 -24 -15 -10 2 11 7 45 11 75 4 30 9 69 12 85 2 17 6 47 7 67 2 25
15 50 40 79 20 23 36 49 36 56 0 7 4 13 9 13 25 0 34 190 15 295 -15 76 -17
82 -60 170 -78 163 -281 285 -514 311 -86 10 -191 9 -265 -2 -114 -16 -225
-10 -282 15 -56 25 -125 91 -149 144 -14 31 -14 31 -9 -28z"/>
<path d="M4505 3147 c-11 -6 -24 -14 -30 -19 -20 -17 -155 -117 -352 -262
-112 -81 -203 -152 -203 -156 0 -6 23 -63 62 -150 6 -14 17 -38 24 -55 7 -16
21 -50 32 -75 11 -25 103 -239 205 -475 102 -237 190 -442 197 -457 11 -24 17
-27 48 -22 74 12 10 -33 -72 -51 -49 -10 -69 -14 -84 -19 -9 -3 -212 -8 -449
-11 l-433 -5 5 52 c3 29 7 67 9 83 2 17 7 58 10 92 4 34 9 72 11 85 3 12 7 50
10 83 3 33 8 69 11 80 4 17 2 16 -16 -5 -39 -47 -46 -56 -53 -70 -4 -8 -27
-42 -51 -75 -25 -33 -71 -98 -103 -145 -31 -47 -62 -90 -68 -97 -5 -6 -82
-115 -170 -242 -88 -127 -165 -239 -172 -249 -10 -15 1 -31 85 -118 92 -97
286 -301 457 -481 43 -46 81 -80 84 -77 3 3 7 26 8 52 1 26 4 85 7 132 3 47 5
99 5 115 l1 30 113 1 c444 2 774 106 873 274 10 16 22 30 26 30 4 0 8 5 8 11
0 6 12 28 28 48 30 41 27 36 118 186 158 259 284 560 310 735 4 27 2 31 -6 20
-8 -11 -9 9 -6 74 6 100 -5 143 -73 287 -22 46 -69 152 -106 234 -37 83 -75
168 -85 190 -10 22 -47 105 -83 185 -119 266 -110 250 -132 237z m355 -1421
c0 -16 -126 -148 -158 -165 -40 -21 -26 14 20 50 23 19 63 55 88 81 51 54 50
53 50 34z m-209 -196 c-22 -19 -51 -27 -51 -14 0 12 35 33 55 33 19 0 19 -1
-4 -19z"/>
<path d="M1147 3108 c-11 -5 -24 -11 -30 -13 -7 -1 -19 -5 -27 -8 -28 -10
-535 -179 -545 -181 -37 -8 -245 -82 -245 -87 0 -4 8 -9 18 -12 9 -4 37 -18
62 -32 25 -14 84 -46 132 -71 l86 -45 -49 -103 c-56 -118 -129 -333 -153 -451
-42 -209 -36 -332 22 -435 14 -25 33 -58 42 -75 41 -74 222 -351 239 -365 3
-3 33 -39 66 -80 140 -177 300 -333 404 -395 11 -6 10 -2 -2 16 -29 40 -19 40
36 -1 100 -76 33 -70 951 -84 l308 -5 -6 32 c-3 18 -8 43 -11 57 -13 61 -27
127 -31 150 -2 14 -14 72 -26 130 -11 58 -22 114 -24 125 -15 91 -47 232 -54
239 -5 5 -51 10 -102 11 -90 2 -395 12 -648 20 -69 3 -215 7 -325 11 -110 3
-216 6 -235 7 -31 2 -36 -1 -45 -31 -10 -34 -30 -38 -30 -6 0 20 9 86 20 144
8 38 33 101 91 225 20 44 38 85 40 90 1 6 25 58 53 118 28 59 51 109 51 111 0
4 36 82 106 234 14 28 27 52 30 52 5 0 83 -48 288 -176 65 -41 121 -73 123
-70 4 4 1 10 -122 221 -48 83 -99 170 -113 195 -14 25 -38 68 -54 95 -16 28
-33 57 -38 65 -5 8 -55 94 -111 190 -55 96 -106 180 -112 187 -9 8 -17 9 -30
1z m-196 -1815 c0 -21 2 -45 4 -53 2 -8 6 -29 9 -46 3 -17 15 -61 26 -98 23
-72 23 -76 13 -77 -18 -2 -71 169 -79 259 -4 43 -2 52 10 52 12 0 16 -10 17
-37z"/>
</g>
</svg>
